<svg xmlns="http://www.w3.org/2000/svg" width="206" height="206" viewBox="0 0 206 206">
    <path fill="#00B151" fill-rule="nonzero" d="M103 206C46.119 206 0 159.881 0 103S46.119 0 103 0s103 46.119 103 103-46.119 103-103 103zm56.545-29.66c-9.501-21.882-31.152-37.29-56.545-37.29s-47.065 15.366-56.566 37.27C62.074 188.426 81.685 195.7 103 195.7c21.315 0 40.885-7.252 56.545-19.36zM133.9 92.7c0-17.069-13.831-30.9-30.9-30.9S72.1 75.631 72.1 92.7s13.831 30.9 30.9 30.9 30.9-13.831 30.9-30.9zM103 10.3c-51.185 0-92.7 41.515-92.7 92.7 0 26.023 10.741 49.503 28.02 66.34 9.417-19.296 27.117-33.8 48.557-38.72C72.142 124.358 61.8 109.728 61.8 92.7c0-22.744 18.456-41.2 41.2-41.2 22.744 0 41.2 18.456 41.2 41.2 0 17.027-10.342 31.657-25.077 37.92 21.44 4.899 39.119 19.424 48.557 38.72 17.258-16.816 28.02-40.317 28.02-66.34 0-51.185-41.515-92.7-92.7-92.7z"/>
</svg>
